<svg xmlns="http://www.w3.org/2000/svg" width="1024" height="1024" viewBox="0 0 1024 1024">
  <!-- branch + merge node (amber parts) -->
  <path d="M 386.1 339.6 L 388.4 339.9 L 390.6 340.3 L 392.9 340.7 L 395.2 341.1 L 397.4 341.6 L 399.7 342.0 L 402.0 342.6 L 404.2 343.1 L 406.5 343.6 L 408.8 344.2 L 411.1 344.8 L 413.4 345.5 L 415.7 346.2 L 418.0 346.8 L 420.3 347.6 L 422.5 348.3 L 424.8 349.1 L 427.1 349.9 L 429.4 350.7 L 431.7 351.5 L 434.0 352.4 L 436.3 353.3 L 438.6 354.2 L 440.9 355.1 L 443.2 356.1 L 445.5 357.1 L 447.8 358.1 L 450.1 359.1 L 452.3 360.2 L 454.6 361.3 L 456.9 362.4 L 459.2 363.5 L 461.4 364.7 L 463.7 365.9 L 466.0 367.1 L 468.2 368.3 L 470.5 369.5 L 472.7 370.8 L 475.0 372.1 L 477.2 373.4 L 479.4 374.7 L 481.6 376.1 L 483.9 377.4 L 486.1 378.8 L 488.3 380.3 L 490.5 381.7 L 492.6 383.1 L 494.8 384.6 L 497.0 386.1 L 499.1 387.6 L 501.3 389.2 L 503.4 390.7 L 505.6 392.3 L 507.7 393.9 L 509.8 395.5 L 511.9 397.1 L 514.0 398.7 L 516.1 400.4 L 518.1 402.1 L 520.2 403.8 L 522.2 405.5 L 524.3 407.2 L 526.3 409.0 L 528.3 410.7 L 530.3 412.5 L 532.3 414.3 L 534.2 416.1 L 536.2 417.9 L 538.1 419.8 L 540.1 421.6 L 542.0 423.5 L 543.9 425.4 L 545.8 427.2 L 547.6 429.2 L 549.5 431.1 L 551.3 433.0 L 553.1 435.0 L 554.9 436.9 L 556.7 438.9 L 558.5 440.9 L 560.2 442.9 L 562.0 444.9 L 563.7 446.9 L 565.4 448.9 L 567.1 451.0 L 568.7 453.0 L 570.4 455.1 L 572.0 457.2 L 573.6 459.2 L 575.2 461.3 L 576.8 463.4 L 578.3 465.5 L 579.9 467.7 L 581.4 469.8 L 582.9 471.9 L 584.3 474.1 L 585.8 476.2 L 587.2 478.4 L 588.6 480.5 L 590.0 482.7 L 591.4 484.9 L 592.7 487.0 L 594.0 489.2 L 595.3 491.4 L 596.6 493.6 L 597.9 495.8 L 599.1 498.0 L 600.3 500.2 L 601.5 502.4 L 602.6 504.7 L 603.8 506.9 L 604.9 509.1 L 606.0 511.3 L 607.0 513.6 L 608.1 515.8 L 609.1 518.0 L 610.1 520.3 L 611.1 522.5 L 612.0 524.7 L 612.9 527.0 L 611.3 522.0 L 610.3 516.9 L 610.0 511.6 L 610.4 506.4 L 611.5 501.3 L 613.2 496.4 L 615.5 491.7 L 618.5 487.4 L 622.0 483.5 L 625.9 480.1 L 630.3 477.2 L 635.0 474.9 L 640.0 473.3 L 645.1 472.3 L 650.4 472.0 L 655.6 472.4 L 660.7 473.5 L 665.6 475.2 L 670.3 477.5 L 674.6 480.5 L 678.5 484.0 L 681.9 487.9 L 684.8 492.3 L 687.1 497.0 L 685.9 494.1 L 684.6 491.1 L 683.4 488.2 L 682.1 485.3 L 680.7 482.3 L 679.4 479.4 L 678.0 476.5 L 676.6 473.6 L 675.2 470.8 L 673.7 467.9 L 672.2 465.1 L 670.7 462.2 L 669.1 459.4 L 667.6 456.6 L 666.0 453.8 L 664.3 451.0 L 662.7 448.2 L 661.0 445.4 L 659.3 442.7 L 657.6 439.9 L 655.9 437.2 L 654.1 434.5 L 652.3 431.7 L 650.5 429.0 L 648.6 426.4 L 646.8 423.7 L 644.9 421.0 L 643.0 418.4 L 641.0 415.8 L 639.1 413.2 L 637.1 410.6 L 635.1 408.0 L 633.1 405.4 L 631.1 402.9 L 629.0 400.3 L 626.9 397.8 L 624.8 395.3 L 622.7 392.8 L 620.6 390.3 L 618.4 387.9 L 616.2 385.4 L 614.0 383.0 L 611.8 380.6 L 609.6 378.2 L 607.3 375.8 L 605.0 373.4 L 602.7 371.1 L 600.4 368.8 L 598.1 366.4 L 595.7 364.2 L 593.4 361.9 L 591.0 359.6 L 588.6 357.4 L 586.2 355.2 L 583.7 353.0 L 581.3 350.8 L 578.8 348.6 L 576.3 346.5 L 573.8 344.3 L 571.3 342.2 L 568.8 340.1 L 566.2 338.1 L 563.7 336.0 L 561.1 334.0 L 558.5 332.0 L 555.9 330.0 L 553.3 328.0 L 550.6 326.1 L 548.0 324.2 L 545.3 322.3 L 542.6 320.4 L 539.9 318.6 L 537.2 316.7 L 534.5 314.9 L 531.8 313.1 L 529.0 311.4 L 526.3 309.6 L 523.5 307.9 L 520.7 306.2 L 517.9 304.5 L 515.1 302.9 L 512.3 301.3 L 509.5 299.7 L 506.6 298.1 L 503.8 296.6 L 500.9 295.0 L 498.0 293.5 L 495.1 292.1 L 492.2 290.6 L 489.3 289.2 L 486.4 287.8 L 483.5 286.5 L 480.5 285.1 L 477.6 283.8 L 474.6 282.5 L 471.6 281.3 L 468.7 280.1 L 465.7 278.9 L 462.7 277.7 L 459.7 276.6 L 456.6 275.4 L 453.6 274.4 L 450.6 273.3 L 447.5 272.3 L 444.5 271.3 L 441.4 270.4 L 438.4 269.4 L 435.3 268.5 L 432.2 267.7 L 429.1 266.9 L 426.0 266.1 L 422.9 265.3 L 419.8 264.6 L 416.7 263.9 L 413.6 263.2 L 410.4 262.6 L 407.3 262.0 L 404.2 261.4 L 401.0 260.9 L 397.9 260.4 L 403.0 261.5 L 407.9 263.3 L 412.6 265.7 L 416.9 268.7 L 420.7 272.2 L 424.1 276.2 L 427.0 280.6 L 429.2 285.3 L 430.8 290.3 L 431.7 295.4 L 432.0 300.6 L 431.6 305.9 L 430.5 311.0 L 428.7 315.9 L 426.3 320.6 L 423.3 324.9 L 419.8 328.7 L 415.8 332.1 L 411.4 335.0 L 406.7 337.2 L 401.7 338.8 L 396.6 339.7 L 391.4 340.0 Z" fill="#E8843C"/>
  <circle cx="656" cy="568" r="104" fill="#E8843C"/>
</svg>
